<svg xmlns="http://www.w3.org/2000/svg" xmlns:xlink="http://www.w3.org/1999/xlink" width="81" height="78"><defs><path id="a" d="M36 0h26v70H0"/><mask id="b" width="62" height="70" x="0" y="0" fill="#fff"><use xlink:href="#a"/></mask></defs><g fill="none" fill-rule="nonzero"><g stroke="#0AE0F0" stroke-width="1.5"><path fill="#1C1C1C" d="M18.5 73.3L53.8 4.8H.8v68.5h17.7z"/><path stroke-linecap="square" d="M1.5 18.8h45"/></g><g stroke="#0AE0F0" stroke-dasharray="3" transform="translate(19 4)"><use fill="#1C1C1C" stroke-width="3" mask="url(#b)" xlink:href="#a"/><path stroke-linecap="square" stroke-width="1.5" d="M29.2 14.8h30.6"/></g><path fill="#FFF" d="M10 30h31l-3 6H10z"/><path stroke="#FFF" d="M38.5 30.5h32v5h-32zM28.5 42.5h42v5h-42zM18.5 54.5h52v5h-52z"/><path fill="#FFF" d="M10 42h24.7l-3.4 6H10zM10 54h18l-2.6 6H10z"/><path stroke="#0AE0F0" stroke-linecap="square" stroke-width="1.5" d="M57.5.4l-41 77.2"/></g></svg>
