<svg xmlns="http://www.w3.org/2000/svg" width="24" height="17"><path fill-rule="nonzero" d="M20.2 2.1S17.7.2 14.9 0l-.3.5c2.6.7 3.8 1.6 5 2.7a15.6 15.6 0 0 0-8-2.1C8 1 6 2 3.8 3c1.3-1 2.7-2 5-2.6L8.6 0c-3 .3-5.3 2.1-5.3 2.1S.5 6.1 0 13.8A10 10 0 0 0 6.9 17l.9-1.2c-1.5-.5-3.2-1.4-4.6-3 1.7 1.2 4.3 2.6 8.5 2.6s6.8-1.3 8.5-2.7a10.6 10.6 0 0 1-4.6 3.1l.9 1.2s4.1 0 6.9-3.2c-.5-7.7-3.2-11.7-3.2-11.7zm-12 9.6c-1 0-1.8-1-1.8-2.1 0-1.2.8-2.2 1.8-2.2s1.9 1 1.9 2.2c0 1.1-.9 2-1.9 2zm7 0c-1.1 0-2-1-2-2.1 0-1.2.9-2.2 2-2.2 1 0 1.8 1 1.8 2.2 0 1.1-.8 2-1.9 2z"/></svg>
