<svg xmlns="http://www.w3.org/2000/svg" width="20" height="20"><path  fill-rule="evenodd" d="M9.8439 0C4.4077 0 0 4.4077 0 9.8451c0 4.3493 2.82 8.0394 6.7329 9.3417.4923.0899.6474-.2019.6474-.4628 0-.2339.005-.8875 0-1.709-2.738.595-3.3055-1.2968-3.3055-1.2968-.4474-1.1373-1.0924-1.4401-1.0924-1.4401-.8936-.6105.067-.5988.067-.5988.9879.0695 1.5085 1.0148 1.5085 1.0148.8782 1.5035 2.3036 1.069 2.8642.818.0899-.6364.3447-1.0703.626-1.3165C5.862 13.947 3.564 13.1026 3.564 9.33c0-1.0752.3834-1.9534 1.013-2.6415-.1016-.2486-.44-1.2499.0966-2.6057 0 0 .8265-.2646 2.7067 1.01.7853-.2186 1.6278-.3275 2.4648-.3312.8364.0037 1.6783.1126 2.4648.3311 1.8802-1.274 2.7055-1.0099 2.7055-1.0099.5366 1.3558.1988 2.3571.0978 2.6057.6296.6881 1.0118 1.5663 1.0118 2.6415 0 3.7825-2.3017 4.6145-4.4951 4.8576.3532.3047.6739.8955.6739 1.8137v2.7252c0 .2634.1588.5545.6585.459 3.9092-1.304 6.7267-4.9923 6.7267-9.3404C19.689 4.4077 15.2813 0 9.8439 0z"/></svg>
