<svg xmlns="http://www.w3.org/2000/svg" width="83" height="67"><g fill="none" fill-rule="nonzero"><path fill="#1C1C1C" stroke="#0AE0F0" stroke-width="1.5" d="M12.9 47.9h57.6a11 11 0 0 0 8.7-4.7l.1-.1c2.1-2.7 2.7-6.2 1.8-9.5v-.1c-1.6-5-6-8.4-11.1-8.4h-5.4v-.8l.2-3.3c.2-4.8-.8-8.7-3.1-12l-.2-.2c-2.7-4-6.4-6.5-11.2-7.7C49 1 48 .7 46.6.7c-5.8 0-12 3-15.5 8.3l-1.9 2.7-.5-.3-2.4-1c-1.5-.6-3-1-4.6-1-6.2 0-11.4 4.9-12 11.1l-.2 2.2-.3.2-1.7.8A7 7 0 0 0 5.7 25l-.1.1a13 13 0 0 0-4 5.4c-1.3 3.2-1 7 .6 10.3 2.3 4.5 5.7 6.7 10.7 7z"/><path stroke="#FFF" stroke-width="3.6" d="M56.6 30l8.4 6.5-8.4 6.5"/><path fill="#FFF" d="M18 34.3h44v4.3H18z"/><g><path stroke="#FFF" stroke-width="3.6" d="M26.4 54L18 60.5l8.4 6.5"/><path fill="#FFF" d="M65 58.3H21v4.3h44z"/></g></g></svg>
