
<svg width="72px" height="72px" viewBox="0 0 72 72" version="1.1" xmlns="http://www.w3.org/2000/svg" xmlns:xlink="http://www.w3.org/1999/xlink">
    <g id="Page-1" stroke="none" stroke-width="1" fill="none" fill-rule="evenodd">
        <path d="M20.1381528,-3.5341079e-15 L51.8618472,1.72043962e-15 C58.8643216,-9.99624963e-16 61.4035881,0.729102982 63.9635881,2.09820596 C66.5235881,3.46730895 68.5326911,5.47641193 69.901794,8.03641193 C71.270897,10.5964119 72,13.1356784 72,20.1381528 L72,51.8618472 C72,58.8643216 71.270897,61.4035881 69.901794,63.9635881 C68.5326911,66.5235881 66.5235881,68.5326911 63.9635881,69.901794 C61.4035881,71.270897 58.8643216,72 51.8618472,72 L20.1381528,72 C13.1356784,72 10.5964119,71.270897 8.03641193,69.901794 C5.47641193,68.5326911 3.46730895,66.5235881 2.09820596,63.9635881 C0.729102982,61.4035881 1.89584239e-15,58.8643216 -3.26290607e-15,51.8618472 L1.44923779e-15,20.1381528 C-8.42048892e-16,13.1356784 0.729102982,10.5964119 2.09820596,8.03641193 C3.46730895,5.47641193 5.47641193,3.46730895 8.03641193,2.09820596 C10.5964119,0.729102982 13.1356784,2.05341846e-15 20.1381528,-3.5341079e-15 Z M7.0731179,31.4135121 C7.75546875,31.4135121 8.30134943,30.8676314 8.30134943,30.2047763 C8.30134943,29.5321733 7.75546875,29.0057884 7.0731179,29.0057884 C6.40051491,29.0057884 5.85463423,29.5321733 5.85463423,30.2047763 C5.85463423,30.8676314 6.40051491,31.4135121 7.0731179,31.4135121 Z M7.0731179,43.4033913 C7.7067294,43.4033913 8.12588778,42.9647372 8.12588778,42.2921342 L8.12588778,33.8992188 C8.12588778,33.2168679 7.7067294,32.7782138 7.0731179,32.7782138 C6.43950639,32.7782138 6.02034801,33.2168679 6.02034801,33.8992188 L6.02034801,42.2921342 C6.02034801,42.9647372 6.43950639,43.4033913 7.0731179,43.4033913 Z M11.396282,43.3741477 C12.0688849,43.3741477 12.4880433,42.9452415 12.4880433,42.2433949 L12.4880433,38.4124822 L15.5098828,38.4124822 C18.2685298,38.4124822 20.2083558,36.5213956 20.2083558,33.7724964 C20.2083558,31.0333452 18.3075213,29.1520064 15.5781179,29.1520064 L11.396282,29.1520064 C10.7139311,29.1520064 10.3045206,29.5809126 10.3045206,30.2827592 L10.3045206,42.2433949 C10.3045206,42.9452415 10.7139311,43.3741477 11.396282,43.3741477 Z M12.4880433,36.5798828 L12.4880433,30.9943537 L15.0029936,30.9943537 C16.8940803,30.9943537 17.9760938,32.0081321 17.9760938,33.7822443 C17.9760938,35.5563565 16.8940803,36.5798828 14.9932457,36.5798828 L12.4880433,36.5798828 Z M23.8296733,43.3936435 C25.1651314,43.3936435 26.4713459,42.6723011 27.0659659,41.5318004 L27.1147053,41.5318004 L27.1147053,42.3993608 C27.134201,43.0232244 27.5338636,43.4033913 28.1187358,43.4033913 C28.7133558,43.4033913 29.1325142,43.0037287 29.1325142,42.3408736 L29.1325142,36.1509766 C29.1325142,34.0941761 27.5436115,32.7782138 25.0579048,32.7782138 C23.2155575,32.7782138 21.6656463,33.5190518 21.1295135,34.6790483 C21.0027912,34.9129972 20.944304,35.146946 20.944304,35.3613991 C20.944304,35.8877841 21.3244709,36.2387074 21.8508558,36.2387074 C22.2212749,36.2387074 22.4942152,36.1022372 22.7086683,35.7903054 C23.2935405,34.8545099 23.9661435,34.4938388 24.9799219,34.4938388 C26.2666406,34.4938388 27.0367223,35.1761896 27.0367223,36.3166903 L27.0367223,37.1062678 L24.2195881,37.2719815 C21.7923686,37.4084517 20.4081712,38.5099609 20.4081712,40.3035689 C20.4081712,42.1459162 21.8216122,43.3936435 23.8296733,43.3936435 Z M24.4047976,41.7267578 C23.2837926,41.7267578 22.5332067,41.1418857 22.5332067,40.2450817 C22.5332067,39.3677734 23.2448011,38.8121449 24.5022763,38.7244141 L27.0367223,38.5684482 L27.0367223,39.3775213 C27.0367223,40.7129794 25.8767259,41.7267578 24.4047976,41.7267578 Z M34.7911364,43.3936435 C36.3897869,43.3936435 37.4718004,42.5943182 37.9981854,41.3953303 L38.027429,41.3953303 L38.027429,42.3506214 C38.027429,43.0134766 38.5050746,43.4033913 39.0996946,43.4033913 C39.7138104,43.4033913 40.1427166,43.0134766 40.1427166,42.3506214 L40.1427166,30.078054 C40.1427166,29.3859553 39.7040625,28.9667969 39.0899467,28.9667969 C38.4660831,28.9667969 38.027429,29.3859553 38.027429,30.078054 L38.027429,34.6693004 L37.9884375,34.6693004 C37.4133132,33.5385476 36.2435689,32.7977095 34.7716406,32.7977095 C32.1982031,32.7977095 30.4825781,34.8545099 30.4825781,38.0908026 C30.4825781,41.3270952 32.1982031,43.3936435 34.7911364,43.3936435 Z M35.3467649,41.6097834 C33.6798793,41.6097834 32.6368573,40.2548295 32.6368573,38.0908026 C32.6368573,35.9365234 33.6798793,34.5718217 35.3467649,34.5718217 C36.9649112,34.5718217 38.0469247,35.965767 38.0469247,38.0908026 C38.0469247,40.2353338 36.9649112,41.6097834 35.3467649,41.6097834 Z M48.4040199,43.4521307 C52.4493857,43.4521307 54.9935796,40.6642401 54.9935796,36.189968 C54.9935796,31.715696 52.4493857,28.9180575 48.4040199,28.9180575 C44.3489063,28.9180575 41.8144602,31.715696 41.8144602,36.189968 C41.8144602,40.6642401 44.3489063,43.4521307 48.4040199,43.4521307 Z M48.4040199,41.5318004 C45.7331037,41.5318004 44.0467223,39.4652521 44.0467223,36.189968 C44.0467223,32.9049361 45.7331037,30.8383878 48.4040199,30.8383878 C51.0749361,30.8383878 52.7515696,32.9049361 52.7515696,36.189968 C52.7515696,39.4652521 51.0749361,41.5318004 48.4040199,41.5318004 Z M61.6367365,43.4521307 C64.9217685,43.4521307 67.0078125,41.785245 67.0078125,39.1338246 C67.0078125,37.086772 65.7990767,35.9072798 62.8454723,35.2834162 L61.3150568,34.9617365 C59.4922053,34.5718217 58.7611151,33.8894709 58.7611151,32.8659446 C58.7611151,31.5792259 59.9795987,30.7799006 61.6269887,30.7799006 C63.0306818,30.7799006 64.1029475,31.3355291 64.5805931,32.6319957 C64.8047941,33.1388849 65.1264737,33.3825817 65.6528587,33.3825817 C66.2182351,33.3825817 66.6178977,33.0121626 66.6178977,32.4467862 C66.6178977,32.242081 66.5886541,32.0763672 66.5399148,31.939897 C65.9940341,30.0585582 64.0834517,28.9180575 61.6562323,28.9180575 C58.6636364,28.9180575 56.5483487,30.5751953 56.5483487,32.982919 C56.5483487,35.0104759 57.8253196,36.3166903 60.632706,36.9113104 L62.1728693,37.2329901 C64.0542081,37.6424006 64.7950462,38.3247514 64.7950462,39.4165128 C64.7950462,40.6739879 63.5180753,41.5902876 61.7342152,41.5902876 C60.106321,41.5902876 58.8293502,40.9761719 58.390696,39.6602095 C58.1762429,39.1338246 57.8545632,38.9096236 57.3574219,38.9096236 C56.7628019,38.9096236 56.3728871,39.3190341 56.3728871,39.9526456 C56.3728871,40.1865945 56.4216264,40.4205433 56.4898615,40.6349964 C57.0357422,42.2726385 58.9073331,43.4521307 61.6367365,43.4521307 Z" id="Combined-Shape" fill="#0AE0F0"></path>
    </g>
</svg>