<svg xmlns="http://www.w3.org/2000/svg" width="106" height="50"><defs><linearGradient id="a" x1="50%" x2="50%" y1=".5%" y2="100%"><stop offset="0%" stop-color="#F0F0F0"/><stop offset="100%" stop-color="#F5F5F5"/></linearGradient></defs><g fill="none" fill-rule="evenodd" stroke-width="1.5" transform="translate(1 1)"><path fill="#1C1C1C" fill-rule="nonzero" stroke="#0AE0F0" d="M0 1.1C0 .5.5 0 1.1 0H103c.6 0 1.1.5 1.1 1.1v45c0 1-.9 1.9-2 1.9H2c-1.1 0-2-.9-2-2V1.1z"/><rect width="6.3" height="6" x="1.5" y="12.4" fill="url(#a)" stroke="#1C1C1C" rx=".6"/><rect width="6.3" height="6" x="8.5" y="12.4" fill="url(#a)" stroke="#1C1C1C" rx=".6"/><rect width="6.3" height="6" x="12.4" y="19.2" fill="url(#a)" stroke="#1C1C1C" rx=".6"/><rect width="6.3" height="6" x="19.4" y="19.2" fill="url(#a)" stroke="#1C1C1C" rx=".6"/><rect width="6.3" height="6" x="26.4" y="19.2" fill="url(#a)" stroke="#1C1C1C" rx=".6"/><rect width="6.3" height="6" x="33.4" y="19.2" fill="url(#a)" stroke="#1C1C1C" rx=".6"/><rect width="6.3" height="6" x="40.4" y="19.2" fill="url(#a)" stroke="#1C1C1C" rx=".6"/><rect width="6.3" height="6" x="47.3" y="19.2" fill="url(#a)" stroke="#1C1C1C" rx=".6"/><rect width="6.3" height="6" x="54.3" y="19.2" fill="url(#a)" stroke="#1C1C1C" rx=".6"/><rect width="6.3" height="6" x="61.3" y="19.2" fill="url(#a)" stroke="#1C1C1C" rx=".6"/><rect width="6.3" height="6" x="68.3" y="19.2" fill="url(#a)" stroke="#1C1C1C" rx=".6"/><rect width="6.3" height="6" x="75.3" y="19.2" fill="url(#a)" stroke="#1C1C1C" rx=".6"/><rect width="6.3" height="6" x="82.3" y="19.2" fill="url(#a)" stroke="#1C1C1C" rx=".6"/><rect width="6.3" height="6" x="89.3" y="19.2" fill="url(#a)" stroke="#1C1C1C" rx=".6"/><path fill="url(#a)" stroke="#1C1C1C" d="M102.5 24v-4.2c0-.3-.2-.6-.6-.6h-5.2c-.3 0-.5.3-.5.6v4.9c0 .3.2.5.5.5h1v6.3c0 .3.3.6.6.6h3.6c.4 0 .6-.3.6-.6V24z"/><rect width="6.3" height="6" x="13.9" y="26.1" fill="url(#a)" stroke="#1C1C1C" rx=".6"/><rect width="6.3" height="6" x="20.9" y="26.1" fill="url(#a)" stroke="#1C1C1C" rx=".6"/><rect width="6.3" height="6" x="27.9" y="26.1" fill="url(#a)" stroke="#1C1C1C" rx=".6"/><rect width="6.3" height="6" x="34.9" y="26.1" fill="url(#a)" stroke="#1C1C1C" rx=".6"/><rect width="6.3" height="6" x="41.8" y="26.1" fill="url(#a)" stroke="#1C1C1C" rx=".6"/><rect width="6.3" height="6" x="55.8" y="26.1" fill="url(#a)" stroke="#1C1C1C" rx=".6"/><rect width="6.3" height="6" x="62.8" y="26.1" fill="url(#a)" stroke="#1C1C1C" rx=".6"/><rect width="6.3" height="6" x="69.8" y="26.1" fill="url(#a)" stroke="#1C1C1C" rx=".6"/><rect width="6.3" height="6" x="76.8" y="26.1" fill="url(#a)" stroke="#1C1C1C" rx=".6"/><rect width="6.3" height="6" x="83.8" y="26.1" fill="url(#a)" stroke="#1C1C1C" rx=".6"/><rect width="6.3" height="6" x="90.8" y="26.1" fill="url(#a)" stroke="#1C1C1C" rx=".6"/><rect width="6.3" height="6" x="15.5" y="12.4" fill="url(#a)" stroke="#1C1C1C" rx=".6"/><rect width="6.3" height="6" x="22.5" y="12.4" fill="url(#a)" stroke="#1C1C1C" rx=".6"/><rect width="6.3" height="6" x="29.4" y="12.4" fill="url(#a)" stroke="#1C1C1C" rx=".6"/><rect width="6.3" height="6" x="36.4" y="12.4" fill="url(#a)" stroke="#1C1C1C" rx=".6"/><rect width="6.3" height="6" x="43.4" y="12.4" fill="url(#a)" stroke="#1C1C1C" rx=".6"/><rect width="6.3" height="6" x="50.4" y="12.4" fill="url(#a)" stroke="#1C1C1C" rx=".6"/><rect width="6.3" height="6" x="57.4" y="12.4" fill="url(#a)" stroke="#1C1C1C" rx=".6"/><rect width="6.3" height="6" x="64.4" y="12.4" fill="url(#a)" stroke="#1C1C1C" rx=".6"/><rect width="6.3" height="6" x="71.4" y="12.4" fill="url(#a)" stroke="#1C1C1C" rx=".6"/><rect width="6.3" height="6" x="78.4" y="12.4" fill="url(#a)" stroke="#1C1C1C" rx=".6"/><rect width="6.3" height="6" x="85.4" y="12.4" fill="url(#a)" stroke="#1C1C1C" rx=".6"/><rect width="10.2" height="6" x="92.4" y="12.4" fill="url(#a)" stroke="#1C1C1C" rx=".6"/><rect width="10.2" height="6" x="1.5" y="19.2" fill="url(#a)" stroke="#1C1C1C" rx=".6"/><rect width="6.3" height="6.7" x="1.5" y="39.7" fill="url(#a)" stroke="#1C1C1C" rx=".6"/><rect width="6.3" height="6.7" x="8.5" y="39.7" fill="url(#a)" stroke="#1C1C1C" rx=".6"/><rect width="6.3" height="6.7" x="15.5" y="39.7" fill="url(#a)" stroke="#1C1C1C" rx=".6"/><rect width="6.3" height="6.7" x="75.5" y="39.7" fill="url(#a)" stroke="#1C1C1C" rx=".6"/><rect width="6.2" height="3.4" x="82.5" y="43.1" fill="url(#a)" stroke="#1C1C1C" rx=".6"/><rect width="6.2" height="3.4" x="96.3" y="43.1" fill="url(#a)" stroke="#1C1C1C" rx=".6"/><path fill="url(#a)" stroke="#1C1C1C" d="M89.4 43.1h6.2V46c0 .3-.2.6-.5.6h-5.2a.6.6 0 0 1-.5-.6v-2.8zM89.4 40.3c0-.3.2-.6.5-.6h5.2c.3 0 .5.3.5.6v2.8h-6.2v-2.8z"/><rect width="8.4" height="6.7" x="66.4" y="39.7" fill="url(#a)" stroke="#1C1C1C" rx=".6"/><rect width="11.7" height="6" x="1.5" y="26.1" fill="url(#a)" stroke="#1C1C1C" rx=".6"/><rect width="6.5" height="3.9" x="1.5" y="7.6" fill="url(#a)" stroke="#1C1C1C" rx=".6"/><rect width="6.5" height="3.9" x="8.8" y="7.6" fill="url(#a)" stroke="#1C1C1C" rx=".6"/><rect width="6.5" height="3.9" x="16" y="7.6" fill="url(#a)" stroke="#1C1C1C" rx=".6"/><rect width="6.5" height="3.9" x="23.3" y="7.6" fill="url(#a)" stroke="#1C1C1C" rx=".6"/><rect width="6.5" height="3.9" x="30.6" y="7.6" fill="url(#a)" stroke="#1C1C1C" rx=".6"/><rect width="6.5" height="3.9" x="37.8" y="7.6" fill="url(#a)" stroke="#1C1C1C" rx=".6"/><rect width="6.5" height="3.9" x="45.1" y="7.6" fill="url(#a)" stroke="#1C1C1C" rx=".6"/><rect width="6.5" height="3.9" x="52.4" y="7.6" fill="url(#a)" stroke="#1C1C1C" rx=".6"/><rect width="6.5" height="3.9" x="59.6" y="7.6" fill="url(#a)" stroke="#1C1C1C" rx=".6"/><rect width="6.5" height="3.9" x="66.9" y="7.6" fill="url(#a)" stroke="#1C1C1C" rx=".6"/><rect width="6.5" height="3.9" x="74.2" y="7.6" fill="url(#a)" stroke="#1C1C1C" rx=".6"/><rect width="6.5" height="3.9" x="81.4" y="7.6" fill="url(#a)" stroke="#1C1C1C" rx=".6"/><rect width="6.5" height="3.9" x="88.7" y="7.6" fill="url(#a)" stroke="#1C1C1C" rx=".6"/><rect width="6.5" height="3.9" x="96" y="7.6" fill="url(#a)" stroke="#1C1C1C" rx=".6"/><rect width="15.1" height="6" x="87.4" y="32.9" fill="url(#a)" stroke="#1C1C1C" rx=".6"/><rect width="6.3" height="6" x="24.5" y="32.9" fill="url(#a)" stroke="#1C1C1C" rx=".6"/><rect width="6.3" height="6" x="31.5" y="32.9" fill="url(#a)" stroke="#1C1C1C" rx=".6"/><rect width="34.3" height="6.7" x="31.5" y="39.7" fill="url(#a)" stroke="#1C1C1C" rx=".6"/><rect width="6.3" height="6" x="38.5" y="32.9" fill="url(#a)" stroke="#1C1C1C" rx=".6"/><rect width="6.3" height="6" x="45.5" y="32.9" fill="url(#a)" stroke="#1C1C1C" rx=".6"/><rect width="6.3" height="6" x="52.5" y="32.9" fill="url(#a)" stroke="#1C1C1C" rx=".6"/><rect width="6.3" height="6" x="59.5" y="32.9" fill="url(#a)" stroke="#1C1C1C" rx=".6"/><rect width="6.3" height="6" x="66.4" y="32.9" fill="url(#a)" stroke="#1C1C1C" rx=".6"/><rect width="6.3" height="6" x="17.5" y="32.9" fill="url(#a)" stroke="#1C1C1C" rx=".6"/><rect width="6.3" height="6" x="10.5" y="32.9" fill="url(#a)" stroke="#1C1C1C" rx=".6"/><rect width="6.3" height="6" x="73.4" y="32.9" fill="url(#a)" stroke="#1C1C1C" rx=".6"/><rect width="6.3" height="6" x="80.4" y="32.9" fill="url(#a)" stroke="#1C1C1C" rx=".6"/><rect width="6.3" height="6" x="48.8" y="26.1" fill="url(#a)" stroke="#1C1C1C" rx=".6"/><rect width="8.4" height="6" x="1.5" y="32.9" fill="url(#a)" stroke="#1C1C1C" rx=".6"/><rect width="8.4" height="6.7" x="22.5" y="39.7" fill="url(#a)" stroke="#1C1C1C" rx=".6"/></g></svg>
