<?xml version="1.0" encoding="UTF-8"?>
<svg width="72px" height="72px" viewBox="0 0 72 72" version="1.1" xmlns="http://www.w3.org/2000/svg" xmlns:xlink="http://www.w3.org/1999/xlink">
    <!-- Generator: Sketch 51.3 (57544) - http://www.bohemiancoding.com/sketch -->
    <title>Group 5</title>
    <desc>Created with Sketch.</desc>
    <defs></defs>
    <g id="Page-1" stroke="none" stroke-width="1" fill="none" fill-rule="evenodd">
        <g id="01-Home" transform="translate(-278.000000, -1248.000000)" fill-rule="nonzero">
            <g id="Group-5" transform="translate(278.000000, 1248.000000)">
                <circle id="Oval" fill="#1C1C1C" cx="36" cy="36" r="35"></circle>
                <polygon id="Shape" fill="#FFFFFF" points="32.9090909 20 45 20.0316232 35.2794405 31.3021283 44.7342656 30.0166815 26.5314685 52 34.2962238 36.4166817 26 37.7021285"></polygon>
                <path d="M61.0017411,61.5534023 L59.9526459,60.4813019 C66.4957025,54.0786471 70.25,45.3385453 70.25,36 C70.25,17.0842473 54.9157527,1.75 36,1.75 L36,0.25 C55.7441798,0.25 71.75,16.2558202 71.75,36 C71.75,45.7461903 67.8302865,54.8713847 61.0017411,61.5534023 Z" id="Oval" fill="#0AE0F0"></path>
                <path d="M36,71.75 L36,70.25 C37.3134759,70.25 38.6176864,70.1760997 39.9085611,70.0294902 L40.0778334,71.5199086 C38.7307891,71.6728974 37.3700645,71.75 36,71.75 Z M44.1185972,70.8239794 L43.7792835,69.3628612 C45.0535352,69.0669433 46.3067781,68.6984383 47.5340367,68.2596004 L48.0390836,69.6720195 C46.7576489,70.1302295 45.4490735,70.5150045 44.1185972,70.8239794 Z M51.8146134,68.0705258 L51.1502113,66.725695 C52.3211746,66.1471907 53.4578004,65.5019847 54.5547312,64.7936267 L55.3684573,66.0537259 C54.2234787,66.7931113 53.0370016,67.4666155 51.8146134,68.0705258 Z M58.6590685,63.6532643 L57.7077111,62.4935578 C58.717504,61.665181 59.6795902,60.7798042 60.5889644,59.8421289 L61.66575,60.8864146 C60.7167982,61.8648993 59.7128362,62.7888131 58.6590685,63.6532643 Z M64.3604343,57.7686482 L63.1711906,56.8544823 C63.9670318,55.819168 64.703303,54.7393313 65.3760033,53.6202862 L66.6615969,54.3931052 C65.9594629,55.5611135 65.1910171,56.6881383 64.3604343,57.7686482 Z M68.5895127,50.7174001 L67.2228068,50.0992455 C67.7604049,48.9106458 68.2296866,47.6912551 68.6279512,46.4462608 L70.056632,46.9032853 C69.6407898,48.203228 69.1508052,49.4764131 68.5895127,50.7174001 Z M71.059199,43.0283362 L69.5881536,42.7350353 C69.8425201,41.4592645 70.0244515,40.1657707 70.1324113,38.8589928 L71.6273184,38.9824949 C71.5146439,40.3463409 71.3247389,41.6965257 71.059199,43.0283362 Z M71.7326227,34.8748229 L70.2333396,34.9211936 C70.1927501,33.6088309 70.0781157,32.3072147 69.8907526,31.0205615 L71.3750971,30.8044105 C71.5706475,32.1472873 71.6902742,33.5055879 71.7326227,34.8748229 Z M70.5496732,26.7803662 L69.1001455,27.1662022 C68.763832,25.9027234 68.3555067,24.6620289 67.8775946,23.4491834 L69.2731583,22.8992727 C69.77216,24.1656392 70.1985134,25.461112 70.5496732,26.7803662 Z M67.5525038,19.1775332 L66.2294778,19.8843586 C65.6141115,18.7325243 64.9331924,17.6169097 64.1904478,16.5428675 L65.4241784,15.6896918 C66.1994115,16.8107138 66.9101515,17.9751868 67.5525038,19.1775332 Z M62.9231328,12.4788969 L61.7938999,13.4662333 C60.9341979,12.4829779 60.0190838,11.549191 59.053383,10.669772 L60.0633408,9.56072498 C61.0710716,10.4784187 62.0260086,11.4528411 62.9231328,12.4788969 Z M56.8582618,6.96238099 L55.9821572,8.17993625 C54.9220747,7.41714288 53.8193088,6.71536929 52.6792038,6.07844695 L53.410765,4.76893628 C54.6008251,5.43376612 55.7518462,6.16624816 56.8582618,6.96238099 Z M49.6724776,2.95788999 L49.0984198,4.34369575 C47.8936811,3.84464335 46.6600605,3.41476379 45.4026698,3.05657849 L45.8136173,1.61396899 C47.1265173,1.98796688 48.4145939,2.43682276 49.6724776,2.95788999 Z M41.9157066,0.737287723 L41.6692784,2.21690698 C40.3865812,2.00327582 39.087856,1.86227586 37.7774067,1.7953069 L37.8539626,0.297261769 C39.2213891,0.367142491 40.5768297,0.514299917 41.9157066,0.737287723 Z M33.7492758,0.319726285 L33.8423099,1.81683839 C32.5333302,1.89818149 31.2366113,2.0535086 29.9565017,2.28137389 L29.6936271,0.804587874 C31.0298654,0.566731408 32.3832892,0.404611936 33.7492758,0.319726285 Z M25.6864832,1.76034865 L26.1185685,3.19676863 C24.8667988,3.57330976 23.6396312,4.02123464 22.4422123,4.53794077 L21.8479084,3.1606961 C23.0981302,2.62120466 24.3794559,2.15351168 25.6864832,1.76034865 Z M18.1856428,4.99785821 L18.9341617,6.29775031 C17.8025672,6.94935813 16.7090744,7.66529818 15.6590163,8.44166952 L14.7672503,7.23553788 C15.8631798,6.42525106 17.0044951,5.67800033 18.1856428,4.99785821 Z M11.6381114,9.83569658 L12.6605217,10.9332744 C11.7049524,11.8234017 10.8005709,12.767288 9.95215712,13.759997 L8.81186601,12.785453 C9.69721544,11.7495264 10.6409546,10.7645632 11.6381114,9.83569658 Z M6.3137,16.0740418 L7.55840548,16.911125 C6.8297124,17.9946592 6.16339337,19.1189938 5.5631028,20.2787731 L4.2309661,19.589272 C4.8575972,18.378602 5.55311513,17.2049977 6.3137,16.0740418 Z M2.53909451,23.3861995 L3.94259077,23.915537 C3.48255955,25.1352731 3.09248142,26.3820023 2.7747028,27.6506985 L1.31965234,27.2862425 C1.65145696,25.961549 2.05875856,24.6597719 2.53909451,23.3861995 Z M0.569339198,31.2015993 L2.05601657,31.4010745 C1.88317396,32.6892604 1.7830503,33.9918219 1.75691613,35.3045956 L0.257213274,35.2747401 C0.284477759,33.9051885 0.388954429,32.5459964 0.569339198,31.2015993 Z M0.407192383,39.3741177 L1.90065925,39.2342723 C2.02290189,40.5397527 2.21910502,41.83139 2.487682,43.1046971 L1.01997648,43.4142783 C0.739592025,42.0849927 0.534780563,40.7366853 0.407192383,39.3741177 Z M2.10609713,47.3993741 L3.52789691,46.9213727 C3.94442971,48.1603359 4.43164724,49.3728443 4.98676494,50.5536791 L3.62928486,51.1918388 C3.04971235,49.9589842 2.54100925,48.6930061 2.10609713,47.3993741 Z M5.5819686,54.7923415 L6.85734267,54.0027714 C7.54483365,55.1132594 8.2953971,56.1837409 9.10495928,57.2089127 L7.92775578,58.138532 C7.08286911,57.0686278 6.29952358,55.9513912 5.5819686,54.7923415 Z M10.6204545,61.1781908 L11.6853048,60.1217374 C12.605032,61.0487747 13.5768317,61.9229345 14.5956677,62.7395664 L13.6575306,63.9099932 C12.5943163,63.0577905 11.5802121,62.1455767 10.6204545,61.1781908 Z M17.0247681,66.3040423 L17.8220087,65.033449 C18.9278846,65.7273368 20.0726682,66.3575652 21.2510067,66.9206594 L20.6042525,68.2740659 C19.3741351,67.686228 18.1791121,67.0283417 17.0247681,66.3040423 Z M24.4610952,69.8466707 L24.9449962,68.426868 C26.1786057,68.8473101 27.4373372,69.197096 28.7162597,69.4740495 L28.3987899,70.9400689 C27.0634597,70.6509001 25.7491624,70.2856733 24.4610952,69.8466707 Z M32.3263143,71.5634894 L32.4786776,70.0712477 C33.6386933,70.1896894 34.8090504,70.2495545 35.9868274,70.2499975 L35.9862631,71.7499974 C34.7577663,71.7495353 33.5367447,71.6870787 32.3263143,71.5634894 Z" id="Oval" fill="#0AE0F0"></path>
            </g>
        </g>
    </g>
</svg>