<svg width="22" height="22" xmlns="http://www.w3.org/2000/svg"><path fill-rule="nonzero" d="M18.919 8.744c-.645 0-1.212.266-1.628.683-1.534-1.061-3.601-1.744-5.892-1.817l1.19-5.363 3.79.851c0 .928.757 1.684 1.685 1.684.945 0 1.706-.777 1.706-1.706a1.71 1.71 0 00-1.706-1.705c-.662 0-1.233.4-1.517.945l-4.185-.928c-.21-.056-.417.094-.473.305l-1.306 5.912c-2.273.095-4.318.778-5.857 1.84a2.284 2.284 0 00-1.65-.701c-2.389 0-3.17 3.206-.984 4.301-.077.34-.111.7-.111 1.062 0 3.6 4.056 6.518 9.036 6.518 5.002 0 9.058-2.918 9.058-6.518a4.1 4.1 0 00-.133-1.079c2.144-1.1 1.353-4.284-1.023-4.284zM5.56 13.273c0-.945.756-1.706 1.706-1.706.928 0 1.684.756 1.684 1.706 0 .928-.756 1.684-1.684 1.684a1.692 1.692 0 01-1.706-1.684zm9.208 4.018c-1.564 1.564-5.977 1.564-7.54 0-.173-.15-.173-.417 0-.59.15-.15.416-.15.566 0 1.195 1.226 5.157 1.247 6.403 0 .15-.15.417-.15.567 0 .176.173.176.44.004.59zm-.034-2.33a1.687 1.687 0 01-1.684-1.684 1.694 1.694 0 111.684 1.685z" /></svg>
