<svg xmlns="http://www.w3.org/2000/svg" width="324" height="235"><g fill="none" fill-rule="nonzero" stroke="#FFF" stroke-width=".5" opacity=".1" transform="translate(-115 -74)"><path stroke-linecap="square" d="M395.5 302.5l38-188M394.5 303.5l-71-119M323.5 184.5l110-71M434.5 114.5l-153-100M283.5 13.5l40 172M324.5 185.5l-121 108M203.5 294.5l190 9M394.5 302.5l-191-168M204.5 134.5l79-121M284.5 12.5l-81 284M204.5 294.5l-3-161M204.5 133.5l-112-49M34.5 184.5l169 110M204.5 293.5l-112-210M91.5 84.5l194-71M204.5 133.5l231-19M434.5 113.5L4.5 5.5M.5.5l204 296M32.5 185.5l171-51M203.5 133.5l121 50M95.5 83.5l301 222M324.5 185.5h-291"/><circle cx="204" cy="294" r="4" fill="#000"/><circle cx="324" cy="184" r="4" fill="#000"/><circle cx="434" cy="114" r="4" fill="#000"/><circle cx="394" cy="304" r="4" fill="#000"/><circle cx="204" cy="134" r="4" fill="#000"/></g></svg>
