<svg xmlns="http://www.w3.org/2000/svg" xmlns:xlink="http://www.w3.org/1999/xlink" width="190" height="128"><defs><path id="a" d="M0 0h108.6v146.9H0z"/><path id="c" d="M0 0h108.6v146.9H0z"/></defs><g fill="none" fill-rule="evenodd"><g transform="rotate(-90 64 60.6)"><path fill="#1C1C1C" stroke="#0AE0F0" stroke-width="2.9" d="M122.8 176.6c0 4.3-3.5 7.8-7.9 7.8H6.4a7.9 7.9 0 0 1-7.8-7.8V6.4c0-4.3 3.5-7.8 7.8-7.8h108.5c4.4 0 7.9 3.5 7.9 7.8v170.2z"/><path d="M6.4 16.9H115v146.9H6.4z"/><g transform="translate(6.4 16.9)"><mask id="b" fill="#fff"><use xlink:href="#a"/></mask><g mask="url(#b)"><path d="M.8.8h107v145.3H.8z"/><path d="M107 1.6v143.7H1.6V1.6H107zm1.6-1.6H0v146.9h108.6V0z"/></g></g><use stroke="#0AE0F0" stroke-width=".8" transform="translate(6.4 16.9)" xlink:href="#c"/><ellipse cx="60.5" cy="172.1" stroke="#0AE0F0" stroke-width="1.6" rx="4.6" ry="4.7"/><g fill="#0AE0F0"><path d="M60.5 6.7c.5 0 .8.4.8.8 0 .5-.3.8-.8.8s-.8-.3-.8-.8c0-.4.4-.8.8-.8zm0-1.6c-1.4 0-2.4 1-2.4 2.4s1 2.5 2.4 2.5S63 9 63 7.5c0-1.3-1-2.4-2.4-2.4z"/></g></g><g fill-rule="nonzero"><path fill="#242424" stroke="#FFF" stroke-width="1.5" d="M93.5 31.8L67.8 40v16c0 14.1 6.8 27.4 18.1 35.5l7.6 5.4 7.6-5.4A43.6 43.6 0 0 0 119.3 56V40l-25.8-8.2z"/><path fill="#FFF" d="M86.6 54.8V58H84v15h19V58h-2.6v-3.2c0-3.7-3.1-6.8-6.9-6.8-3.8 0-7 3-7 6.8zM95 69.4h-3.2l.6-4a2 2 0 0 1-1-1.7c0-1 .9-1.9 2-1.9a2 2 0 0 1 2 2 2 2 0 0 1-1 1.5l.6 4zm-5.6-14.6a4 4 0 0 1 4-4 4 4 0 0 1 4 4V58h-8v-3.2z"/></g></g></svg>
