<svg xmlns="http://www.w3.org/2000/svg" width="160" height="42"><g fill="none" fill-rule="evenodd"><path fill="#0AE0F0" fill-rule="nonzero" d="M35.04 6.6A19.99 19.99 0 0 0 20.8.7C15.44.7 10.4 2.8 6.6 6.6 2.8 10.4.7 15.44.7 20.8c0 5.37 2.1 10.42 5.9 14.22 3.8 3.8 8.84 5.89 14.21 5.89 5.38 0 10.43-2.1 14.23-5.9 3.8-3.79 5.89-8.84 5.89-14.2 0-5.38-2.1-10.43-5.9-14.22"/><path fill="#FFF" d="M35.36 6.27A20.43 20.43 0 0 1 41.4 20.8c0 5.5-2.14 10.66-6.03 14.54a20.45 20.45 0 0 1-14.55 6.03c-5.5 0-10.66-2.14-14.54-6.03A20.43 20.43 0 0 1 .24 20.81c0-5.5 2.14-10.66 6.03-14.54A20.45 20.45 0 0 1 20.8.25c5.5 0 10.67 2.13 14.55 6.02zM20.81 38.7a17.9 17.9 0 0 0 17.9-17.89A17.9 17.9 0 0 0 20.8 2.93 17.9 17.9 0 0 0 2.92 20.8a17.9 17.9 0 0 0 17.9 17.89z"/><path fill="#FFF" d="M13.5 31.3h3.57L28.2 10.43h-3.6z"/><g><path fill="#0AE0F0" fill-rule="nonzero" d="M116.3 25.78a3.4 3.4 0 0 1-1.07 2.57c-.71.68-1.79 1.02-3.23 1.02a4.97 4.97 0 0 1-4.36-2.48l1.98-1.36c.55 1 1.32 1.49 2.3 1.49 1 0 1.5-.42 1.5-1.26 0-.46-.28-.82-.84-1.1l-1.84-.89c-1.58-.8-2.38-1.9-2.38-3.33 0-1.13.36-2.03 1.07-2.68a4.15 4.15 0 0 1 2.91-.98c1.6 0 2.9.75 3.9 2.25l-2 1.37c-.44-.84-1.04-1.25-1.8-1.25-.36 0-.65.1-.88.29-.22.2-.33.47-.33.81 0 .53.3.95.93 1.25l1.54.76c1.73.84 2.6 2.02 2.6 3.52zM128.25 29.16h-2.87v-7.65c0-.91-.12-1.5-.34-1.78a1.18 1.18 0 0 0-.97-.41c-.72 0-1.16.49-1.33 1.47v8.37h-2.88V12.78h2.88v5.62c.63-1.05 1.46-1.57 2.49-1.57.9 0 1.63.33 2.19 1 .55.68.83 1.87.83 3.57v7.76zM140.1 23.45h-5.52v1.34c0 .7.11 1.23.33 1.58.22.35.6.53 1.12.53.77 0 1.38-.38 1.84-1.14l2.15 1.48a4.6 4.6 0 0 1-4.1 2.13c-1.25 0-2.26-.4-3.04-1.18-.78-.8-1.17-2.11-1.17-3.97v-2.28c0-1.86.39-3.18 1.17-3.97.78-.8 1.79-1.19 3.03-1.19 1.24 0 2.25.4 3.02 1.18.78.8 1.17 2.12 1.17 3.98v1.51zm-2.86-1.85v-.45c0-.68-.1-1.2-.32-1.57-.21-.36-.55-.54-1-.54-.46 0-.8.18-1.02.54-.22.36-.33.89-.33 1.57v.45h2.67zM150.5 29.17h-7.25V26.8h2.2V15.14h-1.79v-2.36h4.67V26.8h2.17zM159.7 29.17h-7.25V26.8h2.18V15.14h-1.78v-2.36h4.67V26.8h2.18z"/><g fill="#FFF"><path fill-rule="nonzero" d="M60.58 24.15c0 1.8-.39 3.08-1.17 3.83a4.18 4.18 0 0 1-3.02 1.13h-4.2V12.78h3.76c1.39 0 2.43.38 3.13 1.12.7.75 1.05 1.76 1.05 3.02 0 .9-.2 1.65-.6 2.22-.4.57-.86.93-1.4 1.09a3.6 3.6 0 0 1 1.89 1.33c.37.58.56 1.44.56 2.59zm-3.3-7.23c0-.63-.13-1.07-.38-1.32s-.64-.38-1.18-.38h-.66v3.9h.76c.46 0 .82-.16 1.07-.48.26-.32.38-.9.38-1.72zm.43 7.23c0-1.07-.14-1.77-.42-2.1-.28-.32-.69-.48-1.21-.48h-1.02v5.09h1.1c.46 0 .84-.14 1.12-.43.29-.28.43-.98.43-2.08zM70.44 29.11h-7.2v-2.35h2.16V15.14h-1.77v-2.36h4.65v13.98h2.16zM79.02 13.24c0 .52-.18.96-.52 1.3-.35.36-.82.53-1.4.53-.59 0-1.05-.17-1.4-.52a1.78 1.78 0 0 1-.51-1.3c0-.54.17-.98.51-1.33.35-.35.81-.52 1.4-.52.58 0 1.05.17 1.4.52.34.35.52.8.52 1.32zM81.01 29.04h-7.2v-2.36h2.17v-7.4h-1.87v-2.36h4.73v9.76h2.17zM92.73 29.22h-2.86v-7.75c0-.82-.11-1.38-.33-1.65a1.18 1.18 0 0 0-.97-.41c-.71 0-1.15.49-1.32 1.46v8.35h-2.87V17.11h2.87v1.39c.62-1.05 1.45-1.58 2.47-1.58.9 0 1.63.34 2.18 1.01.56.67.83 1.85.83 3.54v7.75z"/><path d="M104.68 29.11h-2.85c-.05-.9-.7-2.35-1.97-4.37l-.28-.4-.84 1.04v3.73h-2.86V12.78h2.86v9l1.05-1.34c1.1-1.35 1.67-2.5 1.72-3.44h2.85l-.02.4c-.06 1.07-.86 2.55-2.39 4.42l-.56.69.56.83c1.75 2.52 2.65 4.3 2.7 5.34l.03.43z"/></g></g></g></svg>
